<?xml version="1.0" encoding="UTF-8"?>
<svg width="320px" height="320px" viewBox="0 0 320 320" version="1.1" xmlns="http://www.w3.org/2000/svg" xmlns:xlink="http://www.w3.org/1999/xlink">
    <title>images / Namron 3802967</title>
    <g id="images-/-Namron-3802967" stroke="none" stroke-width="1" fill="none" fill-rule="evenodd">
        <path d="M130,292 L130,304 L138,304 L138,292 L145,292 L145,304 L148,304 L148,320 L120,320 L120,304 L123,304 L123,292 L130,292 Z M143,308 L125,308 L125,314 L143,314 L143,308 Z" id="Combined-Shape" fill="#000000"></path>
        <path d="M182,292 L182,304 L190,304 L190,292 L197,292 L197,304 L200,304 L200,320 L172,320 L172,304 L175,304 L175,292 L182,292 Z M195,308 L177,308 L177,314 L195,314 L195,308 Z" id="Combined-Shape" fill="#000000"></path>
        <path d="M280,0 C285.522847,-1.01453063e-15 290,4.4771525 290,10 C290,13.2762655 288.424444,16.18454 285.989683,18.0084712 L285.987178,18.3122839 C285.568667,72.0906259 274.921063,108.8973 256.43943,135.413773 C251.438837,142.58836 246.59616,148.141231 239.918705,154.853655 L239.196152,155.577407 L237.659504,157.111873 C231.527775,163.238615 230.580057,164.249875 229.63686,165.841507 L229.58888,165.922965 L229.054785,166.876333 C226.852466,170.982575 225.577236,175.832044 225.257315,181.448431 L225.176,184.432 L225.146335,189.360019 L225.042,189.36 L222.826766,270.348296 C222.779623,272.071858 222.008213,273.609242 220.808566,274.672614 C220.553036,275.233501 220.206021,275.763453 219.768116,276.239445 L219.541593,276.472837 L204.521374,291.14597 C204.011865,291.643705 203.343715,291.942277 202.637785,291.99245 L202.424993,292 L117.751169,292 C117.035509,292 116.345918,291.744271 115.804854,291.282957 L115.647113,291.138445 L100.726512,276.457786 C100.195883,275.93569 99.7726127,275.325184 99.4710617,274.660537 C98.3498007,273.661352 97.6053633,272.246164 97.4818086,270.651861 L97.4664997,270.368702 L94.974,189.36 L94.8232072,189.360019 L94.823,184.435 L94.7206544,181.10284 C94.3664111,175.615088 93.0961636,170.880707 90.9368118,166.86068 L90.6836018,166.399803 C89.8095755,164.844136 89.3655775,164.203378 85.9528683,160.739955 L85.6978104,160.481442 L80.0812953,154.853655 C73.4038404,148.141231 68.5611626,142.58836 63.5605695,135.413773 C45.0789367,108.8973 34.4313332,72.0906259 34.0128218,18.3122839 L34.0103168,18.0084712 C31.5755564,16.18454 30,13.2762655 30,10 C30,4.4771525 34.4771525,1.01453063e-15 40,0 L280,0 Z M205.526189,276.182515 L114.705722,276.182515 L120.621423,282.002734 L199.569469,282.002734 L205.526189,276.182515 Z M215.033,189.36 L104.983,189.36 L107.346361,266.185576 L212.93157,266.185576 L215.033,189.36 Z M275.964,20 L44.034,20 L44.0530539,21.3490199 C44.8117452,70.4571644 54.4430311,104.033076 70.7475364,128.208754 L71.2436527,128.93848 L71.7702788,129.700436 C76.383473,136.319204 80.8711937,141.466545 87.1673588,147.796505 L87.8744731,148.504835 L91.3738501,152.002524 C97.1045154,157.74835 97.723543,158.532328 99.1351458,161.02291 L99.2129639,161.160492 L99.7140792,162.062677 C102.332795,166.912778 103.936778,172.4136 104.546613,178.535289 L104.612568,179.244391 L104.621117,179.362154 L215.377687,179.362154 L215.389596,179.219199 C215.925038,173.059288 217.451514,167.517226 219.989044,162.623691 L220.286324,162.061932 L220.592585,161.50594 C222.054634,158.90366 222.462631,158.230747 226.946822,153.692897 L227.238632,153.397942 L232.832641,147.796505 C239.128806,141.466545 243.616527,136.319204 248.229721,129.700436 C264.984531,105.661519 274.971459,72.1532563 275.920942,22.8479616 L275.946946,21.3490199 L275.964,20 Z" id="Combined-Shape" fill="#000000" transform="translate(160.000000, 146.000000) scale(-1, 1) translate(-160.000000, -146.000000) "></path>
    </g>
</svg>