<?xml version="1.0" encoding="UTF-8"?>
<svg width="100px" height="100px" viewBox="0 0 100 100" version="1.1" xmlns="http://www.w3.org/2000/svg" xmlns:xlink="http://www.w3.org/1999/xlink">
    <title>images / namron_icon</title>
    <defs>
        <polygon id="path-1" points="0.395794286 0.00726857143 96.3867429 0.00726857143 96.3867429 96 0.395794286 96"></polygon>
        <path d="M0.216685714,45.2612571 C0.216685714,69.5958857 19.9446857,89.3197714 44.2779429,89.3197714 L44.2779429,89.3197714 C68.6125714,89.3197714 88.3378286,69.5958857 88.3378286,45.2612571 L88.3378286,45.2612571 C88.3378286,20.928 68.6125714,1.20137143 44.2779429,1.20137143 L44.2779429,1.20137143 C19.9446857,1.20137143 0.216685714,20.928 0.216685714,45.2612571 L0.216685714,45.2612571 Z M25.2795429,45.2612571 C25.2795429,34.7698286 33.7865143,26.2614857 44.2779429,26.2614857 L44.2779429,26.2614857 C54.768,26.2614857 63.2749714,34.7698286 63.2749714,45.2612571 L63.2749714,45.2612571 C63.2749714,55.7540571 54.768,64.2569143 44.2779429,64.2569143 L44.2779429,64.2569143 C33.7865143,64.2569143 25.2795429,55.7540571 25.2795429,45.2612571 L25.2795429,45.2612571 Z" id="path-3"></path>
        <path d="M0.216685714,45.2612571 C0.216685714,69.5958857 19.9446857,89.3197714 44.2779429,89.3197714 L44.2779429,89.3197714 C68.6125714,89.3197714 88.3378286,69.5958857 88.3378286,45.2612571 L88.3378286,45.2612571 C88.3378286,20.928 68.6125714,1.20137143 44.2779429,1.20137143 L44.2779429,1.20137143 C19.9446857,1.20137143 0.216685714,20.928 0.216685714,45.2612571 L0.216685714,45.2612571 Z M25.2795429,45.2612571 C25.2795429,34.7698286 33.7865143,26.2614857 44.2779429,26.2614857 L44.2779429,26.2614857 C54.768,26.2614857 63.2749714,34.7698286 63.2749714,45.2612571 L63.2749714,45.2612571 C63.2749714,55.7540571 54.768,64.2569143 44.2779429,64.2569143 L44.2779429,64.2569143 C33.7865143,64.2569143 25.2795429,55.7540571 25.2795429,45.2612571 L25.2795429,45.2612571 Z" id="path-5"></path>
        <path d="M0.216685714,45.2612571 C0.216685714,69.5958857 19.9446857,89.3197714 44.2779429,89.3197714 L44.2779429,89.3197714 C68.6125714,89.3197714 88.3378286,69.5958857 88.3378286,45.2612571 L88.3378286,45.2612571 C88.3378286,20.928 68.6125714,1.20137143 44.2779429,1.20137143 L44.2779429,1.20137143 C19.9446857,1.20137143 0.216685714,20.928 0.216685714,45.2612571 L0.216685714,45.2612571 Z M25.2795429,45.2612571 C25.2795429,34.7698286 33.7865143,26.2614857 44.2779429,26.2614857 L44.2779429,26.2614857 C54.768,26.2614857 63.2749714,34.7698286 63.2749714,45.2612571 L63.2749714,45.2612571 C63.2749714,55.7540571 54.768,64.2569143 44.2779429,64.2569143 L44.2779429,64.2569143 C33.7865143,64.2569143 25.2795429,55.7540571 25.2795429,45.2612571 L25.2795429,45.2612571 Z" id="path-7"></path>
    </defs>
    <g id="images-/-namron_icon" stroke="none" stroke-width="1" fill="none" fill-rule="evenodd">
        <g id="Group-19" transform="translate(1.500000, 2.000000)">
            <g id="Group-6" transform="translate(0.000000, -0.006857)">
                <g id="Group-5">
                    <mask id="mask-2" fill="white">
                        <use xlink:href="#path-1"></use>
                    </mask>
                    <g id="Clip-4"></g>
                    <path d="M48.39168,3.94464 C72.7249371,3.94464 92.4515657,23.6712686 92.4515657,48.0045257 C92.4515657,72.3391543 72.7249371,92.0644114 48.39168,92.0644114 C24.0584229,92.0644114 4.33179429,72.3391543 4.33179429,48.0045257 C4.33179429,23.6712686 24.0584229,3.94464 48.39168,3.94464 M48.39168,67.0015543 C58.8817371,67.0015543 67.39008,58.4945829 67.39008,48.0045257 C67.39008,37.5130971 58.8817371,29.0047543 48.39168,29.0047543 C37.9016229,29.0047543 29.39328,37.5130971 29.39328,48.0045257 C29.39328,58.4945829 37.9016229,67.0015543 48.39168,67.0015543 M48.39168,0.00726857143 C21.9258514,0.00726857143 0.395794286,21.5386971 0.395794286,48.0045257 C0.395794286,74.4703543 21.9258514,96.0004114 48.39168,96.0004114 C74.8575086,96.0004114 96.3875657,74.4703543 96.3875657,48.0045257 C96.3875657,21.5386971 74.8575086,0.00726857143 48.39168,0.00726857143 M48.39168,63.0655543 C40.0863086,63.0655543 33.32928,56.3085257 33.32928,48.0045257 C33.32928,39.6977829 40.0863086,32.9421257 48.39168,32.9421257 C56.69568,32.9421257 63.45408,39.6977829 63.45408,48.0045257 C63.45408,56.3085257 56.69568,63.0655543 48.39168,63.0655543" id="Fill-3" fill="#231916" mask="url(#mask-2)"></path>
                </g>
            </g>
            <g id="Group-16" transform="translate(4.114286, 2.736000)">
                <g id="Group-9">
                    <mask id="mask-4" fill="white">
                        <use xlink:href="#path-3"></use>
                    </mask>
                    <g id="Clip-8"></g>
                    <path d="M25.2916114,45.2589257 C25.3903543,42.5764114 25.5850971,39.9665829 25.9293257,37.3444114 C26.2269257,34.7236114 26.63424,32.11104 27.1690971,29.5204114 C28.2223543,24.3418971 29.6212114,19.1825829 31.7373257,14.2440686 C33.7258971,9.25069714 36.4344686,4.48224 39.83424,0.110125714 C43.2271543,-4.26747429 50.8591543,-1.58770286 48.4605257,0.05664 C46.8490971,1.16064 45.3117257,2.40041143 43.8634971,3.75812571 C40.2429257,7.12772571 37.2669257,11.2557257 34.7736686,15.6881829 C32.3997257,20.1850971 30.4920686,24.9960686 29.18784,29.98944 C27.9000686,34.9690971 27.0319543,40.14624 26.9743543,45.26304 L25.2916114,45.2589257 Z" id="Fill-7" fill="#231916" mask="url(#mask-4)"></path>
                </g>
                <g id="Group-12">
                    <mask id="mask-6" fill="white">
                        <use xlink:href="#path-5"></use>
                    </mask>
                    <g id="Clip-11"></g>
                    <path d="M63.26304,45.2629029 C63.1642971,47.9454171 62.9695543,50.5538743 62.6253257,53.1774171 C62.3277257,55.7982171 61.9217829,58.4107886 61.3855543,61.0000457 C60.3322971,66.1799314 58.93344,71.3392457 56.8173257,76.2763886 C54.8287543,81.2711314 52.1201829,86.0382171 48.7204114,90.4103314 C45.3274971,94.7906743 37.8820114,92.0107886 40.3560686,90.28416 C41.8728686,89.2254171 43.3210971,88.04736 44.6911543,86.7637029 C48.3117257,83.3927314 51.2877257,79.2661029 53.7809829,74.8336457 C56.1549257,70.3367314 58.0625829,65.5243886 59.3668114,60.5323886 C60.6545829,55.5527314 61.5226971,50.3742171 61.5802971,45.2587886 L63.26304,45.2629029 Z" id="Fill-10" fill="#231916" mask="url(#mask-6)"></path>
                </g>
                <g id="Group-15">
                    <mask id="mask-8" fill="white">
                        <use xlink:href="#path-7"></use>
                    </mask>
                    <g id="Clip-14"></g>
                    <path d="M44.2753371,64.2459429 C41.5928229,64.1485714 38.9829943,63.9524571 36.3608229,63.6082286 C33.7400229,63.3106286 31.1274514,62.9033143 28.5381943,62.3698286 C23.3583086,61.3152 18.1989943,59.9177143 13.2618514,57.8016 C8.26710857,55.8130286 3.49865143,53.1030857 -0.872091429,49.7033143 C-1.39734857,49.2973714 -2.07209143,49.0148571 -2.42729143,48.4470857 C-3.25014857,47.1318857 -2.31483429,39.1254857 -1.55506286,40.128 C-0.152091429,41.9862857 1.15350857,43.9433143 2.77453714,45.6740571 C6.14550857,49.296 10.2721371,52.272 14.7045943,54.7652571 C19.2015086,57.1378286 24.01248,59.0454857 29.0058514,60.3497143 C33.9855086,61.6388571 39.1640229,62.5056 44.2794514,62.5632 L44.2753371,64.2459429 Z" id="Fill-13" fill="#231916" mask="url(#mask-8)"></path>
                </g>
            </g>
            <path d="M48.39168,66.9953829 C58.8817371,66.9953829 67.39008,58.4897829 67.39008,47.9956114 C67.39008,37.5069257 58.8817371,28.9985829 48.39168,28.9985829 C37.9016229,28.9985829 29.39328,37.5069257 29.39328,47.9956114 C29.39328,58.4897829 37.9016229,66.9953829 48.39168,66.9953829 M48.39168,63.0593829 C40.0863086,63.0593829 33.32928,56.3023543 33.32928,47.9956114 C33.32928,39.6929829 40.0863086,32.9345829 48.39168,32.9345829 C56.69568,32.9345829 63.45408,39.6929829 63.45408,47.9956114 C63.45408,56.3023543 56.69568,63.0593829 48.39168,63.0593829" id="Fill-17" fill="#231916"></path>
        </g>
    </g>
</svg>